<?xml version="1.0" encoding="utf-8"?>
<!-- Generator: Adobe Illustrator 18.0.0, SVG Export Plug-In . SVG Version: 6.00 Build 0)  -->
<!DOCTYPE svg PUBLIC "-//W3C//DTD SVG 1.1//EN" "http://www.w3.org/Graphics/SVG/1.1/DTD/svg11.dtd">
<svg version="1.1" id="Layer_1" xmlns="http://www.w3.org/2000/svg" xmlns:xlink="http://www.w3.org/1999/xlink" x="0px" y="0px"
	 viewBox="0 0 99.9 36" enable-background="new 0 0 99.9 36" xml:space="preserve">
<g>
	<g>
		<path fill="#FFFFFF" d="M43.8,7.7c-0.4-0.3-1-0.6-1.7-0.7c-0.7-0.1-1.6-0.2-2.8-0.2c-1.1,0-2.1,0.1-2.8,0.2
			c-0.7,0.1-1.3,0.3-1.7,0.7c-0.4,0.3-0.7,0.8-0.8,1.5c-0.2,0.6-0.2,1.5-0.2,2.6v2.8c0,0.6,0,1.1,0.1,1.5c0.1,0.4,0.2,0.8,0.4,1.1
			c0.2,0.3,0.4,0.6,0.7,0.9c0.3,0.3,0.7,0.5,1.2,0.8c0.3,0.2,0.7,0.3,1.1,0.5c0.4,0.2,0.8,0.4,1.4,0.6c0.5,0.2,1,0.4,1.3,0.6
			c0.3,0.2,0.5,0.3,0.7,0.5c0.2,0.2,0.3,0.4,0.3,0.6c0.1,0.2,0.1,0.5,0.1,0.8v2.8c0,0.7-0.1,1.1-0.3,1.3c-0.2,0.2-0.6,0.3-1.4,0.3
			c-0.7,0-1.2-0.1-1.4-0.3c-0.2-0.2-0.3-0.7-0.3-1.4v-3.1h-3.8v3.5c0,1.1,0.1,1.9,0.2,2.6c0.2,0.6,0.4,1.1,0.8,1.5
			c0.4,0.3,1,0.6,1.7,0.7c0.7,0.1,1.6,0.2,2.8,0.2c1.1,0,2.1-0.1,2.8-0.2c0.7-0.1,1.3-0.3,1.6-0.7c0.4-0.3,0.7-0.8,0.8-1.5
			c0.1-0.6,0.2-1.5,0.2-2.6v-4.2c0-0.5,0-0.9-0.1-1.2c-0.1-0.3-0.2-0.7-0.3-1c-0.2-0.3-0.4-0.6-0.8-0.9c-0.3-0.3-0.8-0.5-1.3-0.8
			c-0.4-0.2-0.7-0.4-1.2-0.6c-0.4-0.2-0.9-0.4-1.5-0.6c-0.4-0.2-0.8-0.3-1.1-0.5c-0.3-0.2-0.5-0.3-0.6-0.5c-0.1-0.2-0.2-0.4-0.2-0.6
			c0-0.2-0.1-0.5-0.1-0.8v-1.8c0-0.7,0.1-1.1,0.3-1.3c0.2-0.2,0.7-0.3,1.4-0.3c0.7,0,1.2,0.1,1.4,0.3c0.2,0.2,0.3,0.7,0.3,1.3v1.7
			h3.8v-2.1c0-1.1-0.1-1.9-0.2-2.6C44.5,8.6,44.2,8.1,43.8,7.7z M58.1,8.1c-0.3-0.4-0.7-0.6-1.1-0.8c-0.5-0.2-1.1-0.2-1.9-0.2
			c-0.9,0-1.7,0.1-2.2,0.4c-0.6,0.3-1,0.8-1.3,1.4V7.3h-3.6V36h3.9v-7.2c0.3,0.5,0.7,0.9,1.2,1.2c0.5,0.3,1.2,0.4,2.1,0.4
			c0.8,0,1.4-0.1,1.9-0.2c0.5-0.1,0.8-0.4,1.1-0.7c0.3-0.4,0.5-0.8,0.6-1.4c0.1-0.6,0.2-1.4,0.2-2.3V11.8c0-0.9-0.1-1.6-0.2-2.2
			C58.6,8.9,58.4,8.5,58.1,8.1z M55,25c0,0.8-0.1,1.3-0.3,1.5c-0.2,0.3-0.7,0.4-1.3,0.4c-0.8,0-1.4-0.4-1.7-1.2V11.8
			c0.3-0.8,0.9-1.2,1.7-1.2c0.7,0,1.1,0.1,1.3,0.4c0.2,0.3,0.3,0.8,0.3,1.5V25z M73.4,7.3h-4.3L66,15.7h-0.2V0h-3.9v30.2h3.9V18.4
			H66l3.6,11.8h4.4l-4.7-13.3L73.4,7.3z M85,7.7c-0.4-0.3-0.9-0.6-1.6-0.7c-0.7-0.1-1.5-0.2-2.6-0.2c-1.1,0-2,0.1-2.8,0.2
			c-0.7,0.1-1.3,0.3-1.7,0.7c-0.4,0.3-0.7,0.8-0.8,1.5c-0.1,0.6-0.2,1.5-0.2,2.6v13.9c0,1.1,0.1,1.9,0.2,2.6
			c0.1,0.6,0.4,1.1,0.8,1.5c0.4,0.3,1,0.6,1.7,0.7c0.7,0.1,1.6,0.2,2.8,0.2c1.1,0,1.9-0.1,2.6-0.2c0.7-0.1,1.2-0.3,1.6-0.7
			c0.4-0.3,0.6-0.8,0.8-1.5c0.1-0.6,0.2-1.5,0.2-2.6v-3.3h-3.5v3.1c0,0.7-0.1,1.2-0.3,1.4c-0.2,0.2-0.7,0.3-1.3,0.3
			c-0.7,0-1.2-0.1-1.4-0.3c-0.2-0.2-0.3-0.7-0.3-1.4v-5.4H86v-8.3c0-1.1-0.1-1.9-0.2-2.6C85.7,8.6,85.4,8.1,85,7.7z M82.5,17h-3.3
			v-4.9c0-0.7,0.1-1.2,0.3-1.4c0.2-0.2,0.6-0.3,1.4-0.3c0.7,0,1.1,0.1,1.3,0.3c0.2,0.2,0.3,0.7,0.3,1.4V17z M99.1,8.1
			c-0.5-0.7-1.5-1-2.8-1c-0.9,0-1.7,0.2-2.3,0.5c-0.6,0.3-1,0.7-1.3,1.2V7.3h-3.6v22.9H93V11.9c0.3-0.8,0.9-1.3,1.7-1.3
			c0.7,0,1.1,0.1,1.3,0.3c0.2,0.2,0.3,0.6,0.3,1.3v5.2h3.5v-5.7C99.9,10,99.6,8.8,99.1,8.1z"/>
	</g>
</g>
<g>
	<g>
		<linearGradient id="SVGID_1_" gradientUnits="userSpaceOnUse" x1="0" y1="18.7316" x2="24" y2="18.7316">
			<stop  offset="0" style="stop-color:#F68B6E"/>
			<stop  offset="0.5069" style="stop-color:#FD4B72"/>
			<stop  offset="1" style="stop-color:#F72A84"/>
		</linearGradient>
		<path fill-rule="evenodd" clip-rule="evenodd" fill="url(#SVGID_1_)" d="M4,6.7c-2.2,0-4,1.8-4,4c0,2.2,1.8,4,4,4c2.2,0,4-1.8,4-4
			C8,8.5,6.2,6.7,4,6.7z M20,14.7c2.2,0,4-1.8,4-4c0-2.2-1.8-4-4-4c-2.2,0-4,1.8-4,4C16,12.9,17.8,14.7,20,14.7z M4,22.7
			c-2.2,0-4,1.8-4,4c0,2.2,1.8,4,4,4c2.2,0,4-1.8,4-4C8,24.5,6.2,22.7,4,22.7z M20,22.7c-2.2,0-4,1.8-4,4c0,2.2,1.8,4,4,4
			c2.2,0,4-1.8,4-4C24,24.5,22.2,22.7,20,22.7z"/>
	</g>
</g>
</svg>
